<?xml version="1.0" encoding="UTF-8"?>
<svg id="Layer_1" xmlns="http://www.w3.org/2000/svg" version="1.1" viewBox="0 0 1024 500">
  <!-- Generator: Adobe Illustrator 30.4.0, SVG Export Plug-In . SVG Version: 2.1.4 Build 226)  -->
  <defs>
    <style>
      .st0 {
        fill: #111;
      }

      .st1 {
        font-size: 30px;
        letter-spacing: -.02em;
      }

      .st1, .st2, .st3, .st4, .st5, .st6, .st7, .st8, .st9, .st10, .st11, .st12, .st13, .st14, .st15 {
        isolation: isolate;
      }

      .st1, .st3, .st5, .st6, .st9 {
        font-family: RobotoMono-Regular, 'Roboto Mono';
      }

      .st1, .st3, .st7, .st8 {
        fill: gold;
      }

      .st2 {
        fill: #aaa;
        font-family: Helvetica-Light, Helvetica;
        font-size: 20px;
        font-weight: 300;
        letter-spacing: .05em;
      }

      .st3 {
        font-size: 12px;
        letter-spacing: .08em;
      }

      .st4 {
        font-size: 11px;
        letter-spacing: .36em;
      }

      .st4, .st10 {
        fill: #888;
        font-family: Helvetica, Helvetica;
      }

      .st5 {
        font-size: 58px;
      }

      .st5, .st9, .st11, .st12, .st13, .st14, .st15 {
        fill: #fff;
      }

      .st6 {
        fill: #ccc;
        font-size: 16px;
      }

      .st7 {
        opacity: .8;
      }

      .st8, .st15 {
        opacity: .4;
      }

      .st9 {
        font-size: 72px;
      }

      .st10 {
        font-size: 18px;
        letter-spacing: .33em;
      }

      .st16 {
        fill: #1a1a1a;
      }

      .st11 {
        opacity: .3;
      }

      .st12 {
        opacity: .35;
      }

      .st13 {
        opacity: .5;
      }

      .st14 {
        opacity: .45;
      }
    </style>
  </defs>
  <rect y="0" width="1024" height="500"/>
  <circle class="st13" cx="48" cy="42" r="1.5"/>
  <circle class="st15" cx="130" cy="88" r="1.2"/>
  <circle class="st12" cx="220" cy="35" r="1.8"/>
  <circle class="st13" cx="310" cy="72" r="1"/>
  <circle class="st15" cx="420" cy="28" r="1.4"/>
  <circle class="st11" cx="560" cy="55" r="1.2"/>
  <circle class="st14" cx="680" cy="38" r="1.6"/>
  <circle class="st15" cx="780" cy="80" r="1"/>
  <circle class="st13" cx="880" cy="22" r="1.3"/>
  <circle class="st12" cx="970" cy="65" r="1.5"/>
  <circle class="st15" cx="60" cy="440" r="1.2"/>
  <circle class="st12" cx="160" cy="468" r="1.5"/>
  <circle class="st13" cx="290" cy="455" r="1"/>
  <circle class="st15" cx="740" cy="462" r="1.3"/>
  <circle class="st12" cx="860" cy="445" r="1.6"/>
  <circle class="st14" cx="960" cy="475" r="1.2"/>
  <circle class="st11" cx="75" cy="200" r="1"/>
  <circle class="st11" cx="950" cy="280" r="1.2"/>
  <circle class="st12" cx="995" cy="155" r="1"/>
  <circle class="st11" cx="30" cy="320" r="1.3"/>
  <rect class="st0" x="60" y="80" width="260" height="340" rx="40" ry="40"/>
  <text class="st5" transform="translate(102.99 210)"><tspan x="0" y="0">04:18</tspan></text>
  <text class="st4" transform="translate(134.96 246)"><tspan x="0" y="0">BRIGHTDATE</tspan></text>
  <text class="st1" transform="translate(102.49 300)"><tspan x="0" y="0">9627.47168</tspan></text>
  <text class="st6" transform="translate(108 360)"><tspan x="0" y="0">23000</tspan></text>
  <text class="st6" transform="translate(233.6 360)"><tspan x="0" y="0">100</tspan></text>
  <text class="st10" transform="translate(428.48 178)"><tspan x="0" y="0">WEAROS WATCH FACE</tspan></text>
  <text class="st9" transform="translate(363.96 265)"><tspan x="0" y="0">BrightDate</tspan></text>
  <rect class="st7" x="370" y="280" width="420" height="3"/>
  <text class="st2" transform="translate(401.33 330)"><tspan x="0" y="0">One universal scalar. No timezones.</tspan></text>
  <path class="st16" d="M376,368h112c9.94,0,18,8.06,18,18h0c0,9.94-8.06,18-18,18h-112c-9.94,0-18-8.06-18-18h0c0-9.94,8.06-18,18-18Z"/>
  <text class="st3" transform="translate(366.39 391)"><tspan x="0" y="0">J2000.0 ANCHORED</tspan></text>
  <path class="st16" d="M536,368h92c9.94,0,18,8.06,18,18h0c0,9.94-8.06,18-18,18h-92c-9.94,0-18-8.06-18-18h0c0-9.94,8.06-18,18-18Z"/>
  <text class="st3" transform="translate(528.69 391)"><tspan x="0" y="0">TAI SUBSTRATE</tspan></text>
  <path class="st16" d="M676,368h112c9.94,0,18,8.06,18,18h0c0,9.94-8.06,18-18,18h-112c-9.94,0-18-8.06-18-18h0c0-9.94,8.06-18,18-18Z"/>
  <text class="st3" transform="translate(678.69 391)"><tspan x="0" y="0">TIMEZONE-FREE</tspan></text>
  <rect class="st8" y="0" width="1024" height="3"/>
  <rect class="st8" y="497" width="1024" height="3"/>
</svg>